<?xml version="1.0" encoding="utf-8"?>
<!-- Generator: Adobe Illustrator 27.0.0, SVG Export Plug-In . SVG Version: 6.00 Build 0)  -->
<svg version="1.1" id="레이어_1" xmlns="http://www.w3.org/2000/svg" xmlns:xlink="http://www.w3.org/1999/xlink" x="0px"
	 y="0px" viewBox="0 0 40 40" style="enable-background:new 0 0 40 40;" xml:space="preserve">
<style type="text/css">
	.st0{fill:#FFFFFF;}
</style>
<g>
	<path class="st0" d="M13.56,36.48c-0.83,0-1.53-0.29-2.1-0.87c-0.58-0.58-0.87-1.28-0.87-2.1s0.29-1.53,0.87-2.1
		c0.58-0.58,1.28-0.87,2.1-0.87c0.83,0,1.53,0.29,2.1,0.87c0.58,0.58,0.87,1.28,0.87,2.1s-0.29,1.53-0.87,2.1
		C15.09,36.2,14.39,36.48,13.56,36.48z M30.07,36.48c-0.83,0-1.53-0.29-2.1-0.87c-0.58-0.58-0.87-1.28-0.87-2.1s0.29-1.53,0.87-2.1
		c0.58-0.58,1.28-0.87,2.1-0.87c0.83,0,1.53,0.29,2.1,0.87c0.58,0.58,0.87,1.28,0.87,2.1s-0.29,1.53-0.87,2.1
		C31.59,36.2,30.89,36.48,30.07,36.48z M10.18,6.78h24.3c0.63,0,1.11,0.29,1.44,0.87c0.33,0.58,0.33,1.16,0,1.73L30.36,19.4
		c-0.3,0.52-0.69,0.94-1.18,1.26c-0.48,0.32-1.01,0.47-1.59,0.47h-12.5l-2.31,4.29h20.26v2.48H13.15c-1.16,0-1.99-0.39-2.5-1.16
		c-0.51-0.77-0.5-1.64,0.02-2.6l2.64-4.87L7.04,5.99H3.82V3.52h4.83L10.18,6.78z"/>
</g>
</svg>
